<svg width="100%" height="100%" viewBox="0 0 96 24" fill="none" xmlns="http://www.w3.org/2000/svg">
<path d="M0 0H4.87176V23.5506H0V0Z" fill="white"/>
<path d="M7.14099 11.7434C7.40794 7.34773 11.4789 6.03223 15.483 6.03223C19.0201 6.03223 23.2578 6.80228 23.2578 10.8771V19.7327C23.2578 21.2728 23.4247 22.8449 23.8585 23.5187H18.92C18.7531 23.0054 18.6197 22.4278 18.5863 21.8824C17.0514 23.4225 14.7823 24 12.6134 24C9.24319 24 6.57373 22.3958 6.57373 18.8985C6.57373 15.0482 9.57687 14.1177 12.6134 13.7327C15.5831 13.3156 18.3861 13.4119 18.3861 11.4867C18.3861 9.46536 16.9512 9.17659 15.2161 9.17659C13.3808 9.17659 12.1796 9.91455 11.9794 11.7434H7.14099ZM18.3861 15.2086C17.5519 15.9145 15.8501 15.9466 14.3485 16.2033C12.847 16.4921 11.4789 17.0054 11.4789 18.7059C11.4789 20.4385 12.8803 20.8877 14.4486 20.8877C18.2526 20.8877 18.3861 18.0001 18.3861 16.9733V15.2086Z" fill="white" />
<path d="M25.6265 0H30.4982V8.56679H30.565C31.7662 6.83418 33.9685 6.03205 36.1375 6.03205C39.6745 6.03205 43.4785 8.7593 43.4785 14.9839C43.4785 21.2405 39.6745 23.9678 36.1375 23.9678C33.5347 23.9678 31.3658 23.1977 30.298 21.3368H30.2313V23.5186H25.6265V0ZM34.469 9.56143C31.5994 9.56143 30.3314 12.1603 30.3314 15.048C30.3314 17.8715 31.5994 20.5025 34.469 20.5025C37.3387 20.5025 38.6067 17.9036 38.6067 15.048C38.6401 12.1603 37.3721 9.56143 34.469 9.56143Z" fill="white"/>
<path d="M53.8211 6.03223C59.3936 6.03223 62.9974 9.5937 62.9974 15.0161C62.9974 20.4065 59.3936 23.9679 53.8211 23.9679C48.282 23.9679 44.6782 20.4065 44.6782 15.0161C44.6782 9.5937 48.2486 6.03223 53.8211 6.03223ZM53.8211 20.4706C57.1579 20.4706 58.1256 17.7434 58.1256 15.0161C58.1256 12.2889 57.1246 9.52953 53.8211 9.52953C50.5177 9.52953 49.55 12.2568 49.55 15.0161C49.5166 17.7434 50.5177 20.4706 53.8211 20.4706Z" fill="white"/>
<path d="M64.1006 6.51365H68.7388V9.6901H68.8055C69.7064 7.54038 72.109 6.06445 74.4781 6.06445C74.8118 6.06445 75.2456 6.12862 75.5459 6.22488V10.5885C75.1121 10.4922 74.378 10.4281 73.8107 10.4281C70.2403 10.4281 69.0057 12.8986 69.0057 15.9147V23.5831H64.134V6.51365H64.1006Z" fill="white"/>
<path d="M87.9582 9.78603L94.7987 0H88.7924L84.9551 5.4866L87.9582 9.78603Z" fill="white"/>
<path d="M78.3144 23.5506L87.157 10.9411L79.4823 0H79.5156H73.5094L81.1507 10.909L72.3081 23.5506H78.3144Z" fill="white"/>
<path d="M87.9585 12.0962L84.9888 16.3635L89.994 23.5507H96.0003L87.9585 12.0962Z" fill="white"/>
</svg>
