<svg width="17" height="17" viewBox="0 0 17 17" fill="none" xmlns="http://www.w3.org/2000/svg">
<path d="M7.87228 1.27189C8.12905 0.751618 8.87095 0.751618 9.12772 1.27189L11.1291 5.32716C11.2311 5.53376 11.4282 5.67696 11.6562 5.71009L16.1314 6.36038C16.7056 6.44381 16.9348 7.14939 16.5194 7.55437L13.281 10.711C13.1161 10.8718 13.0408 11.1035 13.0797 11.3305L13.8442 15.7877C13.9423 16.3596 13.3421 16.7956 12.8285 16.5256L8.82574 14.4213C8.62181 14.314 8.37819 14.314 8.17426 14.4213L4.17147 16.5256C3.65793 16.7956 3.05773 16.3596 3.15581 15.7877L3.92027 11.3305C3.95922 11.1035 3.88393 10.8718 3.71895 10.711L0.480627 7.55437C0.0651654 7.14939 0.294423 6.44381 0.868577 6.36038L5.34383 5.71009C5.57183 5.67696 5.76893 5.53376 5.87089 5.32716L7.87228 1.27189Z" fill="#F75C03"/>
</svg>
