<svg width="24" height="24" viewBox="0 0 24 24" fill="none" xmlns="http://www.w3.org/2000/svg">
<g clip-path="url(#clip0_2806_971)">
<path fill-rule="evenodd" clip-rule="evenodd" d="M18.3843 21.7793C18.5429 21.8921 18.7267 21.9644 18.9197 21.9896C19.1127 22.0149 19.309 21.9925 19.4913 21.9243C19.6725 21.8558 19.8337 21.7431 19.9602 21.5964C20.0867 21.4497 20.1744 21.2736 20.2153 21.0843C21.0843 17.0003 23.1923 6.66326 23.9833 2.94826C24.0126 2.81022 24.0039 2.66681 23.9581 2.53332C23.9123 2.39984 23.8312 2.28127 23.7233 2.19026C23.6149 2.09818 23.4839 2.03667 23.3438 2.01206C23.2037 1.98746 23.0596 2.00064 22.9263 2.05026C18.7333 3.60226 5.82031 8.44726 0.542308 10.4003C0.379665 10.4599 0.239854 10.5691 0.142607 10.7125C0.045359 10.8558 -0.00441537 11.0261 0.000307552 11.1993C0.0123076 11.5533 0.250308 11.8603 0.593308 11.9633C2.96031 12.6713 6.06731 13.6563 6.06731 13.6563C6.06731 13.6563 7.51931 18.0413 8.27631 20.2713C8.37131 20.5513 8.59031 20.7713 8.87931 20.8473C9.02096 20.8841 9.16965 20.8845 9.31148 20.8483C9.4533 20.8121 9.58364 20.7405 9.69031 20.6403L12.7863 17.7173C12.7863 17.7173 16.3583 20.3363 18.3843 21.7793ZM7.37431 13.1023L9.05331 18.6403L9.42631 15.1333L19.6113 5.94726C19.6636 5.90033 19.6961 5.83528 19.7022 5.76528C19.7084 5.69528 19.6876 5.62557 19.6443 5.57026C19.6008 5.51483 19.5381 5.47758 19.4686 5.46575C19.3992 5.45393 19.3277 5.46836 19.2683 5.50626L7.37431 13.1023Z" fill="white"/>
</g>
<defs>
<clipPath id="clip0_2806_971">
<rect width="24" height="24" fill="white"/>
</clipPath>
</defs>
</svg>
