<svg width="24" height="24" viewBox="0 0 24 24" fill="none" xmlns="http://www.w3.org/2000/svg">
<path d="M24 4.31494C23.1013 4.71412 22.148 4.97614 21.1719 5.09229C22.1887 4.48131 22.9693 3.51381 23.3369 2.36104C22.3704 2.9361 21.3129 3.34126 20.2103 3.55902C19.312 2.5996 18.0324 2 16.6162 2C13.8968 2 11.6921 4.21042 11.6921 6.93669C11.6921 7.32367 11.7357 7.70041 11.8196 8.06182C7.72744 7.85588 4.09931 5.89051 1.67072 2.90368C1.24697 3.63281 1.00416 4.48094 1.00416 5.38556C1.00416 7.09836 1.8735 8.60935 3.19462 9.4947C2.4127 9.47015 1.64798 9.2584 0.964313 8.87715C0.964031 8.89783 0.964031 8.9185 0.964031 8.93928C0.964031 11.3312 2.66128 13.3266 4.91372 13.7801C4.18864 13.9778 3.42809 14.0067 2.69016 13.8647C3.31669 15.826 5.13516 17.2533 7.28972 17.2932C5.60456 18.6172 3.48141 19.4065 1.17459 19.4065C0.777094 19.4065 0.385219 19.3831 0 19.3375C2.17903 20.7383 4.76719 21.5556 7.54781 21.5556C16.6047 21.5556 21.5573 14.0329 21.5573 7.50922C21.5573 7.29509 21.5526 7.08219 21.543 6.87051C22.507 6.17182 23.339 5.30643 24 4.31494Z" fill="white"/>
</svg>
